<svg
	class="min-h-30-40 min-w-30-40"
	slot="icon"
	width="30"
	height="30"
	viewBox="0 0 100 100"
	fill="none"
	xmlns="http://www.w3.org/2000/svg">
	<path
		d="M8.15498 58.5936C3.96035 53.5176 1.35002 47.9117 0.409579 41.6851C-0.62434 34.8396 0.280338 28.2129 3.33858 21.8723C6.99903 14.2831 12.8568 8.47555 20.7975 4.45316C25.3569 2.14363 30.2591 0.728444 35.4736 0.236664C42.512 -0.427136 49.364 0.258001 55.8402 2.89589C69.046 8.27489 77.1693 17.5023 79.6565 30.461C81.7207 41.2163 78.7137 50.9909 71.2637 59.5843C70.4679 60.5022 69.5759 61.351 68.6769 62.2856C69.4307 63.128 70.1503 63.9304 70.8674 64.7347C71.1933 65.1001 71.4984 65.0327 71.9171 64.8057C73.911 63.7243 75.7009 63.9953 77.1392 65.5643C84.3342 73.4134 91.5275 81.2637 98.7192 89.1153C100.569 91.1349 100.425 92.9154 98.2229 94.6262C96.2565 96.154 94.2716 97.6636 92.253 99.1335C90.4487 100.447 88.3366 100.255 86.8476 98.6374C79.5403 90.6977 72.2453 82.7485 64.9638 74.7891C63.5072 73.1968 63.5533 71.6158 65.0223 70.0602C65.3153 69.7499 65.5543 69.4871 65.1895 69.1107C64.414 68.3105 63.7716 67.4013 62.8856 66.7018C42.9802 78.8137 19.2414 72.2796 8.15498 58.5936ZM61.9797 14.1437C54.5164 8.3262 45.9068 5.8372 36.1301 6.83486C28.6204 7.6012 22.115 10.458 16.8984 15.3656C8.3129 23.4427 5.36498 33.1222 8.34267 44.0531C12.4905 59.2793 29.245 68.8417 46.3203 65.8771C63.36 62.9187 75.0102 48.4039 72.7018 32.4772C71.6538 25.2465 68.0078 19.1727 61.9797 14.1437ZM80.0465 75.6108C78.0378 73.4268 76.0292 71.2429 73.9494 68.9817C72.7041 69.9235 71.5531 70.8046 70.3892 71.6712C69.172 72.5776 69.182 72.5599 70.2195 73.689C75.3607 79.284 80.4909 84.8873 85.6299 90.4839C87.0442 92.0241 88.4758 93.551 89.9568 95.1459C91.2944 94.1391 92.5124 93.1667 93.7986 92.2757C94.5516 91.7541 94.5207 91.349 93.943 90.7243C89.3292 85.7347 84.7428 80.7242 80.0465 75.6108Z"
		fill="#145883"></path>
	<path
		d="M13.8519 47.5638C13.8519 47.1178 14.249 46.7563 14.7388 46.7563H65.5141C66.0039 46.7563 66.401 47.1178 66.401 47.5638V49.9864C66.401 50.4323 66.0039 50.7939 65.5141 50.7939H14.7388C14.249 50.7939 13.8519 50.4323 13.8519 49.9864V47.5638Z"
		fill="#C7CACD"></path>
	<path
		d="M16.7343 37.9745C16.7343 36.6923 17.8759 35.6529 19.2842 35.6529C20.6924 35.6529 21.834 36.6923 21.834 37.9745V46.7563H16.7343V37.9745Z"
		fill="#DA5242"></path>
	<path
		d="M27.1555 33.5332C27.1555 32.251 28.2971 31.2116 29.7053 31.2116C31.1136 31.2116 32.2552 32.251 32.2552 33.5332V46.7563H27.1555V33.5332Z"
		fill="#F2BE43"></path>
	<path
		d="M37.5766 30.7069C37.5766 29.4247 38.7182 28.3853 40.1264 28.3853C41.5347 28.3853 42.6763 29.4247 42.6763 30.7069V46.7563H37.5766V30.7069Z"
		fill="#57A65D"></path>
	<path
		d="M47.9977 25.0543C47.9977 23.7721 49.1393 22.7326 50.5476 22.7326C51.9558 22.7326 53.0974 23.7721 53.0974 25.0543V46.7563H47.9977V25.0543Z"
		fill="#353535"></path>
	<path
		d="M58.4188 19.8054C58.4188 18.5232 59.5604 17.4838 60.9687 17.4838C62.3769 17.4838 63.5185 18.5232 63.5185 19.8054V46.7563H58.4188V19.8054Z"
		fill="#5387EC"></path>
</svg>
