<svg
	class="min-h-30-40 min-w-30-40"
	slot="icon"
	width="30"
	height="30"
	viewBox="0 0 100 100"
	fill="none"
	xmlns="http://www.w3.org/2000/svg">
	<path
		fill-rule="evenodd"
		clip-rule="evenodd"
		d="M0 27.6786C0 23.7337 3.81968 20.5358 8.5315 20.5358H89.5808C94.2926 20.5358 98.1123 23.7337 98.1123 27.6786V38.3929H0V27.6786ZM0 45.5358H98.1123V92.8572C98.1123 96.8021 94.2926 100 89.5808 100H8.5315C3.81968 100 0 96.8021 0 92.8572V45.5358ZM12.7973 33.0358C15.7421 33.0358 18.1294 31.2369 18.1294 29.0179C18.1294 26.7989 15.7421 25.0001 12.7973 25.0001C9.85237 25.0001 7.46507 26.7989 7.46507 29.0179C7.46507 31.2369 9.85237 33.0358 12.7973 33.0358ZM33.0596 29.0179C33.0596 31.2369 30.6723 33.0358 27.7274 33.0358C24.7825 33.0358 22.3952 31.2369 22.3952 29.0179C22.3952 26.7989 24.7825 25.0001 27.7274 25.0001C30.6723 25.0001 33.0596 26.7989 33.0596 29.0179ZM42.6575 33.0358C45.6024 33.0358 47.9897 31.2369 47.9897 29.0179C47.9897 26.7989 45.6024 25.0001 42.6575 25.0001C39.7126 25.0001 37.3253 26.7989 37.3253 29.0179C37.3253 31.2369 39.7126 33.0358 42.6575 33.0358Z"
		fill="#145883"></path>
	<path
		d="M12.7973 33.0358C15.7421 33.0358 18.1294 31.2369 18.1294 29.0179C18.1294 26.7989 15.7421 25.0001 12.7973 25.0001C9.85237 25.0001 7.46507 26.7989 7.46507 29.0179C7.46507 31.2369 9.85237 33.0358 12.7973 33.0358Z"
		fill="#F24E1E"></path>
	<path
		d="M33.0596 29.0179C33.0596 31.2369 30.6723 33.0358 27.7274 33.0358C24.7825 33.0358 22.3952 31.2369 22.3952 29.0179C22.3952 26.7989 24.7825 25.0001 27.7274 25.0001C30.6723 25.0001 33.0596 26.7989 33.0596 29.0179Z"
		fill="#808080"></path>
	<path
		d="M42.6575 33.0358C45.6024 33.0358 47.9897 31.2369 47.9897 29.0179C47.9897 26.7989 45.6024 25.0001 42.6575 25.0001C39.7126 25.0001 37.3253 26.7989 37.3253 29.0179C37.3253 31.2369 39.7126 33.0358 42.6575 33.0358Z"
		fill="#FFC600"></path>
	<path
		d="M98.7248 0.177031C89.0536 -3.42792 45.0314 49.2188 45.0314 49.2188L59.883 58.2151C59.883 58.2151 108.396 3.78198 98.7248 0.177031Z"
		fill="#6495ED"></path>
	<path
		d="M33.2121 75.2106C25.3369 69.5273 45.0314 49.2188 45.0314 49.2188L59.883 58.2151C59.883 58.2151 41.0874 80.8938 33.2121 75.2106Z"
		fill="white"></path>
	<path
		d="M14.9301 93.0515C18.1295 89.9266 17.0632 67.6053 29.3271 69.8373C30.9268 80.1052 38.3918 77.4266 39.9913 77.4265C45.8567 90.3729 14.9302 93.9445 14.9301 93.0515Z"
		fill="#0ACF83"></path>
	<path
		d="M44.5678 50.4418C44.7936 50.1973 44.9789 49.9997 45.116 49.8546L59.1232 58.3394C59.0031 58.48 58.8555 58.6515 58.6826 58.8505C58.1562 59.4562 57.3947 60.316 56.4561 61.3303C54.578 63.36 51.9956 66.0034 49.172 68.4673C46.3427 70.9362 43.2972 73.2017 40.492 74.4988C37.6628 75.8071 35.2428 76.0594 33.5047 74.8051C31.7907 73.5681 31.5005 71.5115 32.2188 68.8836C32.9355 66.2617 34.6212 63.2455 36.5819 60.3648C38.5368 57.4927 40.7391 54.7925 42.4554 52.8079C43.3129 51.8162 44.0478 51.0048 44.5678 50.4418ZM60.0507 57.2719C59.9484 57.3878 59.8598 57.4879 59.7857 57.5716L45.7898 49.0936C45.8273 49.0492 45.8674 49.0017 45.9102 48.951C46.2345 48.5669 46.7115 48.0038 47.3222 47.2883C48.5436 45.8572 50.2995 43.8164 52.4369 41.3787C56.7122 36.5027 62.5118 30.0406 68.6119 23.6925C74.7148 17.3415 81.1069 11.1167 86.5692 6.70806C89.3022 4.50222 91.7845 2.76576 93.8695 1.69398C94.9119 1.15814 95.8384 0.797167 96.6353 0.622072C97.4348 0.446423 98.0675 0.465651 98.5502 0.645548C99.0022 0.814063 99.2698 1.11348 99.4028 1.56432C99.5446 2.04523 99.5365 2.71923 99.3441 3.59906C98.9599 5.35545 97.89 7.72331 96.3011 10.5193C93.1317 16.0965 87.9928 23.2152 82.5357 30.2412C77.0824 37.2625 71.3258 44.173 66.9315 49.3293C64.7346 51.9072 62.8787 54.0459 61.5723 55.54C60.919 56.2871 60.4032 56.8729 60.0507 57.2719ZM16.2251 92.668C16.0764 92.6747 15.9417 92.6786 15.8212 92.6801C16.0575 92.2637 16.2585 91.7649 16.4388 91.223C16.7488 90.2907 17.0222 89.1487 17.2934 87.898C17.4237 87.2975 17.5537 86.6708 17.6875 86.0263C18.1148 83.9671 18.5798 81.7263 19.2093 79.576C20.0369 76.7491 21.1274 74.1618 22.7223 72.4212C24.2241 70.7823 26.1841 69.8783 28.8921 70.2726C29.3157 72.7097 30.0807 74.4464 31.0522 75.6663C32.0754 76.9514 33.3042 77.6334 34.5285 77.965C35.7436 78.2941 36.9442 78.2758 37.9227 78.1824C38.3902 78.1377 38.814 78.0751 39.1632 78.0235L39.2125 78.0162C39.3948 77.9893 39.5472 77.9674 39.6734 77.952C40.2485 79.3576 40.3504 80.616 40.1094 81.7474C39.8493 82.9686 39.1804 84.0859 38.1908 85.1074C36.1996 87.1629 32.9745 88.7638 29.4981 89.9558C26.035 91.1432 22.3838 91.9044 19.5983 92.3127C18.2054 92.5168 17.0377 92.6315 16.2251 92.668Z"
		stroke="#145883"></path>
</svg>
