<svg
	fill="#6095f5"
	width="24"
	height="24"
	viewBox="0 0 24 24"
	xmlns="http://www.w3.org/2000/svg">
	<path
		clip-rule="evenodd"
		d="M0.5 4.5C0.5 4.08578 0.835785 3.75 1.25 3.75H22.75C23.1642 3.75 23.5 4.08578 23.5 4.5C23.5 4.91422 23.1642 5.25 22.75 5.25H1.25C0.835785 5.25 0.5 4.91422 0.5 4.5ZM0.5 12C0.5 11.5858 0.835785 11.25 1.25 11.25H22.75C23.1642 11.25 23.5 11.5858 23.5 12C23.5 12.4142 23.1642 12.75 22.75 12.75H1.25C0.835785 12.75 0.5 12.4142 0.5 12ZM1.25 18.75C0.835785 18.75 0.5 19.0858 0.5 19.5C0.5 19.9142 0.835785 20.25 1.25 20.25H22.75C23.1642 20.25 23.5 19.9142 23.5 19.5C23.5 19.0858 23.1642 18.75 22.75 18.75H1.25Z" />
</svg>
