<svg
	width="24"
	height="24"
	viewBox="0 0 24 24"
	fill="primaryColor"
	xmlns="http://www.w3.org/2000/svg">
	<path
		d="M18.7803 11.9697C18.8852 12.0745 18.9567 12.2082 18.9856 12.3537C19.0145 12.4992 18.9997 12.65 18.9429 12.787C18.8862 12.924 18.79 13.0412 18.6667 13.1236C18.5433 13.206 18.3983 13.25 18.25 13.25H12.25V20C12.25 20.1989 12.171 20.3897 12.0303 20.5303C11.8897 20.671 11.6989 20.75 11.5 20.75C11.3011 20.75 11.1103 20.671 10.9697 20.5303C10.829 20.3897 10.75 20.1989 10.75 20V13.25H4.75C4.60167 13.25 4.45666 13.206 4.33332 13.1236C4.20998 13.0412 4.11385 12.924 4.05709 12.787C4.00032 12.65 3.98547 12.4992 4.01441 12.3537C4.04336 12.2082 4.11479 12.0745 4.21968 11.9697L10.9697 5.21966C11.1103 5.07901 11.3011 5 11.5 5C11.6989 5 11.8897 5.07901 12.0303 5.21966L18.7803 11.9697Z"
		fill="black" />
</svg>
