<svg 
	width="24" 
	height="24" 
	viewBox="0 0 24 24" 
	xmlns="http://www.w3.org/2000/svg" 
	fill="#1d9e00">

	<path
		d="M4.71968 11.0298C4.61479 10.9249 4.54336 10.7913 4.51441 10.6458C4.48547 10.5003 4.50032 10.3495 4.55709 10.2125C4.61385 10.0754 4.70998 9.95831 4.83332 9.8759C4.95666 9.79349 5.10167 9.74951 5.25 9.74951H11.25V2.99951C11.25 2.8006 11.329 2.60983 11.4697 2.46918C11.6103 2.32853 11.8011 2.24951 12 2.24951C12.1989 2.24951 12.3897 2.32853 12.5303 2.46918C12.671 2.60983 12.75 2.8006 12.75 2.99951V9.74951H18.75C18.8983 9.74951 19.0433 9.79349 19.1667 9.8759C19.29 9.95831 19.3862 10.0754 19.4429 10.2125C19.4997 10.3495 19.5145 10.5003 19.4856 10.6458C19.4567 10.7913 19.3852 10.9249 19.2803 11.0298L12.5303 17.7798C12.4607 17.8495 12.378 17.9047 12.287 17.9424C12.196 17.9801 12.0985 17.9995 12 17.9995C11.9015 17.9995 11.804 17.9801 11.713 17.9424C11.622 17.9047 11.5393 17.8495 11.4697 17.7798L4.71968 11.0298Z" />
</svg>
