<svg width="40" height="40" viewBox="0 0 40 40" fill="none" xmlns="http://www.w3.org/2000/svg">
<path fill="#ff9800" d="M27.9587 20.9699C28.0679 21.0747 28.1423 21.2084 28.1725 21.3539C28.2026 21.4993 28.1872 21.6501 28.128 21.7872C28.0689 21.9242 27.9688 22.0414 27.8403 22.1238C27.7118 22.2062 27.5608 22.2502 27.4062 22.2501H21.1562V29C21.1562 29.1989 21.0739 29.3897 20.9274 29.5303C20.7809 29.671 20.5822 29.75 20.375 29.75C20.1678 29.75 19.9691 29.671 19.8226 29.5303C19.6761 29.3897 19.5938 29.1989 19.5938 29V22.2501H13.3438C13.1892 22.2502 13.0382 22.2062 12.9097 22.1238C12.7812 22.0414 12.6811 21.9242 12.622 21.7872C12.5628 21.6501 12.5474 21.4993 12.5775 21.3539C12.6077 21.2084 12.6821 21.0747 12.7913 20.9699L19.8226 14.22C19.9691 14.0793 20.1678 14.0003 20.375 14.0003C20.5822 14.0003 20.7809 14.0793 20.9274 14.22L27.9587 20.9699ZM28.9688 11H11.7812C11.574 11 11.3753 11.079 11.2288 11.2197C11.0823 11.3603 11 11.5511 11 11.75C11 11.9489 11.0823 12.1397 11.2288 12.2803C11.3753 12.421 11.574 12.5 11.7812 12.5H28.9688C29.176 12.5 29.3747 12.421 29.5212 12.2803C29.6677 12.1397 29.75 11.9489 29.75 11.75C29.75 11.5511 29.6677 11.3603 29.5212 11.2197C29.3747 11.079 29.176 11 28.9688 11Z" />
<rect x="0.5" y="0.5" width="39" height="39" rx="19.5" stroke="#ff9800"/>
</svg>
